# xmcd CD database file
#
# Track frame offsets:
#	150
#	32290
#	53309
#	76049
#	109372
#	138397
#	156460
#	161603
#	181350
#	205262
#	227562
#	251310
#	272985
#	306885
#	326460
#
# Disc length: 4654 seconds
#
# Revision: 0
# Processed by: cddbd v1.5.2PL0 Copyright (c) Steve Scherf et al.
# Submitted via: CDex 1.51
#
DISCID=bd122c0f
DTITLE=Robert Wyatt - Around Robert Wyatt
DYEAR=2009
DGENRE=Jazz
TTITLE0=The Song
TTITLE1=Alifib
TTITLE2=Just As You Are
TTITLE3=Caroline
TTITLE4=Kew Rhone
TTITLE5=Shipbuilding
TTITLE6=Line
TTITLE7=Alliance
TTITLE8=Vandalusia
TTITLE9=Del Mondo
TTITLE10=Te Recuerdo Amanda
TTITLE11=P L A
TTITLE12=Gegenstand
TTITLE13=Rangers in the Night
TTITLE14=Just as You Are
EXTD=YEAR: 2009
EXTT0=
EXTT1=
EXTT2=
EXTT3=
EXTT4=
EXTT5=
EXTT6=
EXTT7=
EXTT8=
EXTT9=
EXTT10=
EXTT11=
EXTT12=
EXTT13=
EXTT14=
PLAYORDER=
